<svg xmlns="http://www.w3.org/2000/svg" viewBox="0 0 1200 630" width="1200" height="630" role="img" aria-labelledby="title desc">
  <title id="title">Canvas Studios salon concept board</title>
  <desc id="desc">An illustrative salon elevation with repeated cobalt mirror frames, a charcoal service spine, and a screened wash zone.</desc>
  <rect width="1200" height="630" fill="#ecebe6"/>
  <rect x="0" y="0" width="1200" height="114" fill="#17191d"/>
  <text x="56" y="68" fill="#f6f5f0" font-family="Arial, sans-serif" font-size="26" font-weight="700" letter-spacing="4">CANVAS STUDIOS</text>
  <text x="895" y="66" fill="#8b90ff" font-family="Arial, sans-serif" font-size="11" letter-spacing="2">SALON STUDY 05</text>
  <rect x="56" y="160" width="1088" height="358" fill="#f6f5f0" stroke="#17191d" stroke-width="4"/>
  <rect x="56" y="464" width="1088" height="54" fill="#17191d"/>
  <g fill="#d8d7d1" stroke="#3b41e3" stroke-width="12">
    <rect x="108" y="195" width="150" height="214"/>
    <rect x="318" y="195" width="150" height="214"/>
    <rect x="528" y="195" width="150" height="214"/>
    <rect x="738" y="195" width="150" height="214"/>
  </g>
  <g fill="#17191d">
    <circle cx="183" cy="440" r="30"/>
    <circle cx="393" cy="440" r="30"/>
    <circle cx="603" cy="440" r="30"/>
    <circle cx="813" cy="440" r="30"/>
  </g>
  <rect x="930" y="160" width="214" height="304" fill="#3b41e3"/>
  <path d="M951 181l172 0-172 262 172 0" fill="none" stroke="#f6f5f0" stroke-width="6"/>
  <g stroke="#17191d" stroke-width="3">
    <line x1="108" y1="225" x2="258" y2="225"/>
    <line x1="318" y1="255" x2="468" y2="255"/>
    <line x1="528" y1="285" x2="678" y2="285"/>
    <line x1="738" y1="315" x2="888" y2="315"/>
  </g>
  <path d="M86 566H1114" stroke="#3b41e3" stroke-width="3" stroke-dasharray="12 10"/>
  <text x="56" y="596" fill="#555861" font-family="Arial, sans-serif" font-size="11" letter-spacing="2">STATION RHYTHM / SERVICE SPINE / WASH SCREEN</text>
</svg>
